<svg width="125" height="121" viewBox="0 0 125 121" fill="none" xmlns="http://www.w3.org/2000/svg">
<g clip-path="url(#clip0_70_382)">
<path d="M68.2 79.8C68.4 81.7 69 83.4 70.3 84.7C71 85.4 71.9 85.9 72.8 86.4C73.4 86.7 73.6 87 73.5 87.5C73.4 88 73 88.2 72.5 88.2C66.7 88.2 60.9 88.2 55.1 88.2C54.6 88.2 54.2 88.1 54.1 87.5C54 87 54.2 86.7 54.8 86.4C57.6 85.2 58.9 83 59.3 80.1C59.3 80 59.3 79.9 59.3 79.8C59.1 79.8 58.8 79.8 58.6 79.8C53.7 79.8 48.8 79.7 43.9 79.8C41.4 79.8 39.5 77.9 39.5 75.4C39.6 66.6 39.5 57.8 39.5 49C39.5 46.3 41.2 44.6 43.9 44.6C56.4 44.6 69 44.6 81.5 44.6C81.9 44.6 82.3 44.5 82.6 44.2C83.5 43.2 84.5 42.3 85.4 41.3C86.5 40.2 88 40.2 89.1 41.3C89.6 41.8 90.2 42.3 90.7 42.9C91.7 44 91.7 45.4 90.7 46.5C89.9 47.3 89.2 48.1 88.4 48.8C88.1 49.1 88 49.4 88 49.8C88 58.4 88 66.9 88 75.5C88 77.6 86.7 79.3 84.8 79.7C84.4 79.8 84 79.8 83.7 79.8C78.8 79.8 73.9 79.8 69 79.8C68.7 79.8 68.5 79.8 68.2 79.8ZM86.3 51C86.2 51 86.2 50.9 86.1 50.9C86 51.1 85.9 51.2 85.8 51.4C81.2 56 76.5 60.7 71.9 65.3C71.7 65.5 71.4 65.8 71 65.8C69.4 66.1 67.9 66.4 66.3 66.7C65.5 66.8 65.1 66.4 65.2 65.6C65.5 64.1 65.7 62.7 66 61.2C66.1 60.8 66.3 60.4 66.6 60.1C71 55.7 75.4 51.2 79.9 46.8C80 46.7 80.2 46.5 80.4 46.3C80.1 46.3 79.9 46.3 79.7 46.3C67.8 46.3 55.8 46.3 43.9 46.3C42 46.3 41.1 47.2 41.1 49.1C41.1 57.9 41.1 66.6 41.1 75.4C41.1 77.3 42 78.2 43.9 78.2C57.1 78.2 70.3 78.2 83.4 78.2C85.3 78.2 86.2 77.3 86.2 75.4C86.2 67.5 86.2 59.6 86.2 51.7C86.3 51.4 86.3 51.2 86.3 51ZM71.1 63.8C71.2 63.6 71.3 63.5 71.5 63.3C74.6 60.2 77.8 57 80.9 53.9C83.7 51.1 86.6 48.2 89.4 45.4C90 44.8 90 44.5 89.4 43.9C89 43.5 88.6 43.1 88.2 42.7C87.5 42 87.2 41.9 86.4 42.7C80.4 48.7 74.5 54.6 68.5 60.6C68.4 60.7 68.3 60.9 68.2 61C69.2 61.9 70.1 62.8 71.1 63.8ZM66.6 79.8C64.8 79.8 63 79.8 61.3 79.8C60.9 79.8 60.9 80 60.9 80.3C60.6 82.6 59.8 84.6 58.1 86.2C58 86.3 58 86.4 57.9 86.5C61.8 86.5 65.7 86.5 69.7 86.5C67.7 84.6 66.8 82.4 66.6 79.8ZM67.5 62.8C67.4 63.4 67.3 64.1 67.1 64.9C67.9 64.8 68.5 64.6 69.2 64.5C68.6 63.9 68 63.4 67.5 62.8Z" fill="#9024B6"/>
<path d="M52.3 63.1C52.2 61.9 52.2001 60.7 51.9001 59.6C51.2001 56.8 48.8001 54.9 45.9001 54.8C45.2001 54.8 44.5 54.8 43.8 54.8C43.2 54.8 42.8 54.5 42.8 54C42.8 53.5 43.2 53.2 43.8 53.2C45.5 53.2 47.2 53.1 48.8 53.9C52 55.4 53.7 57.9 53.8 61.4C53.9 62.7 53.8 64.1 53.8 65.4C53.8 67.6 55.3 69.2 57.5 69.2C58.1 69.2 58.8001 69.2 59.4001 69.1C60.9001 68.7 61.8 67.6 62.1 66.1C62.1 65.9 62.1 65.8 62.2001 65.6C62.3001 65.1 62.6 64.7 63.1 64.8C63.6 64.8 63.9001 65.2 63.9001 65.7C63.9001 66.8 63.6001 67.8 62.9001 68.7C62.0001 70 60.8001 70.7 59.2001 70.9C57.5001 71.1 55.9001 71 54.4001 70C52.8001 68.9 52.1 67.4 52.1 65.5C52.2 64.6 52.2 63.9 52.3 63.1C52.2 63.1 52.2 63.1 52.3 63.1Z" fill="#9024B6"/>
<path d="M92.5998 120.1H32.2998C26.3998 120.1 21.1998 116.3 19.2998 110.7L0.699809 53.3C-1.10019 47.7 0.899808 41.5 5.69981 38.1L54.3998 2.59998C59.1998 -0.900024 65.5998 -0.900024 70.3998 2.59998L119.2 38C124 41.5 126 47.6 124.2 53.2L105.6 110.6C103.7 116.3 98.4998 120.1 92.5998 120.1ZM62.3998 2.99998C60.1998 2.99998 57.9998 3.69998 56.0998 4.99998L7.39981 40.5C3.69981 43.2 2.09981 48 3.49981 52.4L22.0998 109.8C23.4998 114.2 27.5998 117.1 32.1998 117.1H92.4998C97.0998 117.1 101.2 114.1 102.6 109.8L121.2 52.4C122.6 48 121.1 43.2 117.3 40.5L68.6998 4.99998C66.7998 3.69998 64.5998 2.99998 62.3998 2.99998Z" fill="#9024B6"/>
</g>
<defs>
<clipPath id="clip0_70_382">
<rect width="124.9" height="120.1" fill="white"/>
</clipPath>
</defs>
</svg>
