<svg width="175" height="66" viewBox="0 0 175 66" fill="none" xmlns="http://www.w3.org/2000/svg">
<circle cx="33" cy="33" r="33" fill="#9024B6"/>
<path d="M41.7903 21.4606V43.5769H38.9028V33.55H27.6384V43.5769H24.7509V21.4606H27.6384V31.1702H38.9028V21.4606H41.7903ZM45.6419 34.8192C45.6419 33.0423 46.0015 31.4875 46.7207 30.1548C47.44 28.8009 48.4236 27.7538 49.6717 27.0134C50.9409 26.2731 52.3476 25.9029 53.8919 25.9029C55.415 25.9029 56.7371 26.2307 57.8582 26.8865C58.9794 27.5423 59.815 28.3673 60.365 29.3615V26.1884H63.2842V43.5769H60.365V40.3404C59.7938 41.3558 58.9371 42.2019 57.7948 42.8788C56.6736 43.5346 55.3621 43.8625 53.8601 43.8625C52.3159 43.8625 50.9198 43.4817 49.6717 42.7202C48.4236 41.9586 47.44 40.8904 46.7207 39.5154C46.0015 38.1404 45.6419 36.575 45.6419 34.8192ZM60.365 34.8509C60.365 33.5394 60.1005 32.3971 59.5717 31.424C59.0428 30.4509 58.3236 29.7106 57.414 29.2029C56.5255 28.674 55.5419 28.4096 54.463 28.4096C53.3842 28.4096 52.4005 28.6634 51.5121 29.1711C50.6236 29.6788 49.915 30.4192 49.3861 31.3923C48.8573 32.3654 48.5928 33.5077 48.5928 34.8192C48.5928 36.1519 48.8573 37.3154 49.3861 38.3096C49.915 39.2827 50.6236 40.0336 51.5121 40.5625C52.4005 41.0702 53.3842 41.324 54.463 41.324C55.5419 41.324 56.5255 41.0702 57.414 40.5625C58.3236 40.0336 59.0428 39.2827 59.5717 38.3096C60.1005 37.3154 60.365 36.1625 60.365 34.8509Z" fill="#FFFEFE"/>
<path d="M89.0744 25.8711C90.4282 25.8711 91.634 26.1567 92.6917 26.7279C93.7494 27.2779 94.5849 28.1134 95.1984 29.2346C95.8119 30.3558 96.1186 31.7202 96.1186 33.3279V43.5769H93.2628V33.7404C93.2628 32.0058 92.8292 30.6836 91.9619 29.774C91.1157 28.8432 89.9628 28.3779 88.5032 28.3779C87.0013 28.3779 85.8061 28.8644 84.9176 29.8375C84.0292 30.7894 83.5849 32.175 83.5849 33.9942V43.5769H80.7292V33.7404C80.7292 32.0058 80.2955 30.6836 79.4282 29.774C78.5821 28.8432 77.4292 28.3779 75.9696 28.3779C74.4676 28.3779 73.2724 28.8644 72.384 29.8375C71.4955 30.7894 71.0513 32.175 71.0513 33.9942V43.5769H68.1638V26.1884H71.0513V28.6952C71.6224 27.7856 72.384 27.0875 73.3359 26.6009C74.309 26.1144 75.3772 25.8711 76.5407 25.8711C78.0003 25.8711 79.2907 26.199 80.4119 26.8548C81.533 27.5106 82.3686 28.4731 82.9186 29.7423C83.4051 28.5154 84.209 27.5634 85.3301 26.8865C86.4513 26.2096 87.6994 25.8711 89.0744 25.8711ZM121.766 25.8711C123.12 25.8711 124.325 26.1567 125.383 26.7279C126.441 27.2779 127.276 28.1134 127.89 29.2346C128.503 30.3558 128.81 31.7202 128.81 33.3279V43.5769H125.954V33.7404C125.954 32.0058 125.521 30.6836 124.653 29.774C123.807 28.8432 122.654 28.3779 121.195 28.3779C119.693 28.3779 118.497 28.8644 117.609 29.8375C116.721 30.7894 116.276 32.175 116.276 33.9942V43.5769H113.421V33.7404C113.421 32.0058 112.987 30.6836 112.12 29.774C111.273 28.8432 110.121 28.3779 108.661 28.3779C107.159 28.3779 105.964 28.8644 105.075 29.8375C104.187 30.7894 103.743 32.175 103.743 33.9942V43.5769H100.855V26.1884H103.743V28.6952C104.314 27.7856 105.075 27.0875 106.027 26.6009C107 26.1144 108.069 25.8711 109.232 25.8711C110.692 25.8711 111.982 26.199 113.103 26.8548C114.224 27.5106 115.06 28.4731 115.61 29.7423C116.096 28.5154 116.9 27.5634 118.021 26.8865C119.143 26.2096 120.391 25.8711 121.766 25.8711ZM132.468 34.8192C132.468 33.0423 132.827 31.4875 133.547 30.1548C134.266 28.8009 135.249 27.7538 136.497 27.0134C137.767 26.2731 139.173 25.9029 140.718 25.9029C142.241 25.9029 143.563 26.2307 144.684 26.8865C145.805 27.5423 146.641 28.3673 147.191 29.3615V26.1884H150.11V43.5769H147.191V40.3404C146.62 41.3558 145.763 42.2019 144.621 42.8788C143.499 43.5346 142.188 43.8625 140.686 43.8625C139.142 43.8625 137.746 43.4817 136.497 42.7202C135.249 41.9586 134.266 40.8904 133.547 39.5154C132.827 38.1404 132.468 36.575 132.468 34.8192ZM147.191 34.8509C147.191 33.5394 146.926 32.3971 146.397 31.424C145.869 30.4509 145.149 29.7106 144.24 29.2029C143.351 28.674 142.368 28.4096 141.289 28.4096C140.21 28.4096 139.226 28.6634 138.338 29.1711C137.449 29.6788 136.741 30.4192 136.212 31.3923C135.683 32.3654 135.419 33.5077 135.419 34.8192C135.419 36.1519 135.683 37.3154 136.212 38.3096C136.741 39.2827 137.449 40.0336 138.338 40.5625C139.226 41.0702 140.21 41.324 141.289 41.324C142.368 41.324 143.351 41.0702 144.24 40.5625C145.149 40.0336 145.869 39.2827 146.397 38.3096C146.926 37.3154 147.191 36.1625 147.191 34.8509ZM153.911 34.8192C153.911 33.0423 154.27 31.4875 154.99 30.1548C155.709 28.8009 156.692 27.7538 157.941 27.0134C159.21 26.2731 160.627 25.9029 162.192 25.9029C163.546 25.9029 164.805 26.2202 165.968 26.8548C167.132 27.4683 168.02 28.2827 168.634 29.2981V20.0961H171.553V43.5769H168.634V40.3086C168.063 41.3452 167.217 42.2019 166.095 42.8788C164.974 43.5346 163.663 43.8625 162.161 43.8625C160.617 43.8625 159.21 43.4817 157.941 42.7202C156.692 41.9586 155.709 40.8904 154.99 39.5154C154.27 38.1404 153.911 36.575 153.911 34.8192ZM168.634 34.8509C168.634 33.5394 168.369 32.3971 167.841 31.424C167.312 30.4509 166.592 29.7106 165.683 29.2029C164.794 28.674 163.811 28.4096 162.732 28.4096C161.653 28.4096 160.669 28.6634 159.781 29.1711C158.892 29.6788 158.184 30.4192 157.655 31.3923C157.126 32.3654 156.862 33.5077 156.862 34.8192C156.862 36.1519 157.126 37.3154 157.655 38.3096C158.184 39.2827 158.892 40.0336 159.781 40.5625C160.669 41.0702 161.653 41.324 162.732 41.324C163.811 41.324 164.794 41.0702 165.683 40.5625C166.592 40.0336 167.312 39.2827 167.841 38.3096C168.369 37.3154 168.634 36.1625 168.634 34.8509Z" fill="#9024B6"/>
</svg>
