<svg width="125" height="121" viewBox="0 0 125 121" fill="none" xmlns="http://www.w3.org/2000/svg">
<g clip-path="url(#clip0_70_345)">
<path d="M47.8 46.8C47.8 46.7 47.9001 46.7 47.9001 46.6C48.4001 44.7 49.9 43.5 51.8 43.5C56.3 43.5 60.9001 43.5 65.4001 43.5C67.6001 43.5 69.9 43.5 72.1 43.5C74.1 43.5 75.7001 44.8 76 46.8C76.1 47.1 76.1 47.4 76.1 47.7C76.1 50.5 76.1 53.2 76.1 56C76.1 56.2 76.1 56.3 76.1 56.6C76.2 56.5 76.3001 56.4 76.4001 56.4C81.1001 52.4 85.8 48.4 90.5 44.4C91.2001 43.8 91.9001 43.4 92.9001 43.6C94.9001 44 95.7001 46.2 94.4001 47.7C93.3001 49 92.2 50.3 91.1 51.6C86.3 57.2 81.5 62.9 76.7 68.5C76.2 69 76.1 69.6 76.1 70.3C76.1 75.8 76.1 81.2 76.1 86.7C76.1 88.5 75.1 90 73.5 90.6C73.3 90.7 73.0001 90.8 72.8001 90.8C65.6001 90.8 58.4001 90.8 51.2001 90.8C51.1001 90.8 51.0001 90.7 50.9001 90.7C49.4001 90.3 48.5 89.4 48 88C47.9 87.8 47.9 87.7 47.8 87.5C47.8 73.8 47.8 60.3 47.8 46.8ZM49.4001 74.8C49.5001 74.8 49.5 74.9 49.5 74.9C52.4 74.9 55.3001 74.9 58.2001 74.9C58.3001 74.9 58.5 74.8 58.5 74.6C58.7 74.2 58.8 73.8 59 73.4C59.3 72.6 59.5001 71.8 59.9001 71.1C61.1001 68.8 63 67.3 65.7 67.5C66 67.5 66 67.4 66.1 67.2C66.7 66.2 67.3001 65.2 67.9001 64.2C68.5001 63.3 69.1 62.5 70 61.8C71.4 60.6 72.8 59.4 74.2 58.2C74.4 58 74.5 57.9 74.5 57.6C74.5 54.2 74.5 50.9 74.5 47.5C74.5 46.1 73.5 45.1 72.1 45.1C71.4 45.1 70.7 45.1 70.1 45.1C69.5 45.1 68.9 45.1 68.2 45.1C68.2 45.3 68.2 45.5 68.2 45.7C68.2 47.3 67.2 48.2 65.6 48.2C63.1 48.2 60.6 48.2 58.1 48.2C56.6 48.2 55.6 47.2 55.6 45.7C55.6 45.5 55.6 45.3 55.6 45.1C55.5 45.1 55.5001 45.1 55.4001 45.1C54.2001 45.1 53.1001 45.1 51.9001 45.1C50.2001 45.1 49.2001 46 49.2001 47.8C49.2001 56.7 49.2001 65.6 49.2001 74.4C49.4001 74.5 49.4001 74.7 49.4001 74.8ZM74.6 76.5C73.1 76.5 71.6 76.5 70.2 76.5C70.1 76.5 69.9001 76.6 69.8001 76.7C69.1001 77.5 68.3001 78.2 67.4001 78.8C64.2001 80.9 60.6001 81.2 56.9001 80.4C56.6001 80.3 56.2 80 56 79.7C55.5 79.1 55.7 78.2 56.3 77.6C56.7 77.3 57.0001 76.9 57.4001 76.6V76.5C54.8001 76.5 52.1 76.5 49.5 76.5C49.5 76.7 49.5 76.8 49.5 77C49.5 80.1 49.5 83.3 49.5 86.4C49.5 88.1 50.4 89.1 52.1 89.1C58.7 89.1 65.4 89.1 72 89.1C73.5 89.1 74.7 88 74.6 86.5C74.5 83.4 74.6 80.2 74.6 77.1C74.6 76.9 74.6 76.7 74.6 76.5ZM75.2 67.8C75.4 67.5 75.7001 67.3 75.9001 67C80.2001 61.9 84.6001 56.8 88.9001 51.7C90.3001 50.1 91.7001 48.4 93 46.8C93.3 46.5 93.5 46.2 93.4001 45.8C93.2001 45.1 92.4 44.7 91.6 45.4C84.8 51.2 78 57 71.1 62.9C70.9 63 70.8 63.2 70.6 63.3C72.2 64.8 73.7 66.3 75.2 67.8ZM67.4001 76.9C67.7001 76.6 68.1001 76.3 68.4001 76C69.9001 74.4 69.9001 71.8 68.4001 70.3C66.8001 68.7 64.3 68.7 62.6 70.2C61.9 70.9 61.4 71.7 61 72.6C61 72.7 60.9001 72.8 60.9001 73C61.7001 73.2 62.4 73.4 63.1 73.5C64.9 73.8 66.3 74.8 67.2 76.5C67.2 76.6 67.3001 76.7 67.4001 76.9ZM66 77.8C65.6 76.5 64.7 75.5 63.3 75.2C62.3 74.9 61.4001 74.8 60.4001 74.5C59.8001 76.2 58.8001 77.6 57.4001 78.9C60.4001 79.5 63.2 79.2 66 77.8ZM69.6 64.6C69 65.7 68.3 66.7 67.6 67.9C69 68.5 70 69.5 70.6 70.9C71.7 70.2 72.8001 69.6 73.9001 68.9C72.4001 67.5 71 66 69.6 64.6ZM66.7 45C63.6 45 60.4 45 57.3 45C57.3 45.1 57.3 45.2 57.3 45.3C57.3 46.3 57.5 46.5 58.5 46.5C60.8 46.5 63.1001 46.5 65.4001 46.5C66.6001 46.6 66.8 46.4 66.7 45ZM74.5 70.4C73.6 71 72.7 71.5 71.7 72C71.2 72.3 70.8001 72.6 70.9001 73.3C70.9001 73.4 70.9001 73.6 70.9001 73.8C70.8001 74.2 70.8 74.6 70.7 75C72 75 73.2001 75 74.5 75C74.5 73.4 74.5 71.9 74.5 70.4Z" fill="white"/>
<path d="M62 87.5C60.2 87.5 58.5 87.5 56.7 87.5C56.5 87.5 56.3 87.5 56.2 87.4C55.9 87.3 55.7 86.9 55.7 86.6C55.7 86.2 56 86 56.4 85.9C56.5 85.9 56.6999 85.9 56.7999 85.9C60.2999 85.9 63.6999 85.9 67.1999 85.9C67.8999 85.9 68.3 86.2 68.3 86.7C68.3 87.2 67.8999 87.5 67.1999 87.5C65.4999 87.5 63.7 87.5 62 87.5Z" fill="white"/>
<path d="M92.6001 120.1H32.3001C26.4001 120.1 21.2001 116.3 19.3001 110.7L0.700053 53.3C-1.09995 47.7 0.900053 41.5 5.70005 38.1L54.4001 2.60001C59.2001 -0.899994 65.6001 -0.899994 70.4001 2.60001L119.2 38C124 41.5 126 47.6 124.2 53.2L105.6 110.6C103.7 116.3 98.5001 120.1 92.6001 120.1ZM62.4001 3.00001C60.2001 3.00001 58.0001 3.70001 56.1001 5.00001L7.40005 40.5C3.70005 43.2 2.10005 48 3.50005 52.4L22.1001 109.8C23.5001 114.2 27.6001 117.1 32.2001 117.1H92.5001C97.1001 117.1 101.2 114.1 102.6 109.8L121.2 52.4C122.6 48 121.1 43.2 117.3 40.5L68.7001 5.00001C66.8 3.70001 64.6001 3.00001 62.4001 3.00001Z" fill="white"/>
</g>
<defs>
<clipPath id="clip0_70_345">
<rect width="124.9" height="120.1" fill="white"/>
</clipPath>
</defs>
</svg>
