<svg width="125" height="121" viewBox="0 0 125 121" fill="none" xmlns="http://www.w3.org/2000/svg">
<g clip-path="url(#clip0_70_370)">
<path d="M76.1534 55.825C76.1534 55.425 75.8534 55.025 75.5534 54.825C75.1534 54.625 74.6534 54.825 74.3534 55.025C74.1534 55.225 74.0534 55.525 74.0534 56.025C74.0534 58.025 74.0534 60.025 74.0534 62.025C74.0534 62.725 73.7534 63.225 73.1534 63.525C72.5534 63.825 71.8534 63.825 71.3534 63.425C71.0534 63.225 70.5534 62.825 70.5534 61.925C70.5534 60.425 70.5534 58.925 70.5534 57.425V55.925C70.5534 55.325 70.3534 55.025 70.1534 54.925C69.9534 54.725 69.6534 54.625 69.4534 54.725C69.0534 54.725 68.4534 54.925 68.4534 56.025C68.4534 56.925 68.4534 57.825 68.4534 58.725C68.4534 59.825 68.4534 61.025 68.4534 62.125C68.4534 64.225 70.1534 65.925 72.2534 65.925C74.3534 65.925 76.0534 64.325 76.0534 62.225C76.0534 61.525 76.0534 60.825 76.0534 60.125V59.225V58.425C76.1534 57.525 76.1534 56.625 76.1534 55.825Z" fill="white"/>
<path d="M79.7534 54.725C79.6534 54.425 79.3534 54.125 78.9534 54.025C78.6534 53.925 78.2534 54.025 78.0534 54.325C77.7534 54.625 77.6534 55.025 77.6534 55.325C77.6534 56.525 77.6534 57.825 77.6534 59.025V65.325C77.6534 65.725 77.7534 66.025 77.9534 66.225C78.0534 66.325 78.3534 66.525 78.6534 66.525C79.1534 66.525 79.6534 66.225 79.6534 65.325V65.125V55.525C79.8534 55.225 79.8534 54.925 79.7534 54.725Z" fill="white"/>
<path d="M67.9535 76.725C66.9535 76.725 66.0535 77.525 66.0535 78.625C66.0535 79.625 66.9535 80.525 67.9535 80.525C68.9535 80.525 69.8535 79.625 69.8535 78.625C69.8535 77.525 69.0535 76.725 67.9535 76.725ZM67.9535 79.325C67.5535 79.325 67.2535 79.025 67.2535 78.625C67.2535 78.225 67.5535 77.925 67.9535 77.925C68.3535 77.925 68.6535 78.225 68.6535 78.625C68.7535 79.025 68.3535 79.325 67.9535 79.325Z" fill="white"/>
<path d="M88.0534 49.325C88.0534 46.825 86.3534 45.125 83.9534 45.125C69.6534 45.125 55.3534 45.125 41.0534 45.125C38.5534 45.125 36.9534 46.825 36.9534 49.225C36.9534 59.325 36.9534 69.425 36.9534 79.525C36.9534 79.825 36.9534 80.125 37.0534 80.425C37.4534 82.425 38.9534 83.625 41.0534 83.625C43.7534 83.625 46.4534 83.625 49.2534 83.625H52.7534V87.025H52.2534C51.6534 87.025 51.0534 87.025 50.4534 87.025C49.2534 87.025 48.2534 87.625 47.7534 88.725C47.2534 89.625 47.3534 90.725 47.8534 91.625C48.4534 92.525 49.3534 93.025 50.4534 93.025C56.0534 93.025 61.6534 93.025 67.2534 93.025H72.6534H73.2534C73.4534 93.025 73.6534 93.025 73.8534 93.025C74.1534 93.025 74.4534 93.025 74.7534 93.025C75.6534 93.025 76.4534 92.625 76.9534 91.925C77.4534 91.225 77.6534 90.325 77.5534 89.525C77.2534 88.125 76.0534 87.125 74.5534 87.125C73.9534 87.125 73.4534 87.125 72.8534 87.125H72.4534V83.825H75.9534C78.5534 83.825 81.1534 83.825 83.6534 83.825C86.1534 83.825 87.8534 82.125 87.8534 79.625C87.8534 78.125 87.8534 76.625 87.8534 75.225V73.325V66.925C88.0534 60.925 88.0534 55.125 88.0534 49.325ZM74.2534 88.925C74.4534 88.925 74.7534 88.925 74.9534 89.025C75.4534 89.125 75.7534 89.625 75.6534 90.125C75.6534 90.625 75.2534 91.025 74.6534 91.125C74.5534 91.125 74.4534 91.125 74.4534 91.125H74.3534H50.3534C49.6534 91.125 49.1534 90.725 49.0534 90.125C49.0534 89.825 49.1534 89.525 49.3534 89.325C49.5534 89.125 49.8534 89.025 50.1534 89.025C51.1534 89.025 52.1534 89.025 53.1534 89.025H64.6534C67.9534 88.925 71.0534 88.925 74.2534 88.925ZM54.6534 87.025V83.725H70.5534V87.025H54.6534ZM86.0534 80.125C86.0534 81.025 85.1534 81.725 84.0534 81.725C81.1534 81.725 78.1534 81.725 75.2534 81.725H71.7534H41.1534C39.5534 81.725 38.7534 80.925 38.7534 79.325C38.7534 78.025 38.7534 76.725 38.7534 75.425V75.325H86.0534C86.0534 75.725 86.0534 76.125 86.0534 76.525C86.1534 77.825 86.1534 79.025 86.0534 80.125ZM86.1534 73.425H38.8534V49.325C38.8534 47.825 39.6534 47.025 41.1534 47.025H83.8534C85.2534 47.025 86.0534 47.825 86.0534 49.225C86.0534 55.225 86.0534 61.225 86.0534 67.325V73.425H86.1534Z" fill="white"/>
<path d="M52.5534 55.825C52.5534 55.525 52.2534 55.125 52.0534 55.025C51.7534 54.825 51.3534 55.025 51.1534 55.225C51.0534 55.425 50.9534 55.625 50.9534 56.025C50.9534 58.025 50.9534 60.025 50.9534 62.025C50.9534 62.725 50.7534 63.225 50.2534 63.525C49.5534 64.025 48.8534 64.125 48.0534 63.825C47.2534 63.525 46.9534 62.925 46.9534 62.025C46.9534 60.025 46.9534 58.025 46.9534 56.025C46.9534 55.625 46.8534 55.325 46.6534 55.225C46.4534 55.125 46.3534 55.025 46.0534 55.025C45.6534 55.025 45.2534 55.225 45.2534 56.025C45.2534 56.925 45.2534 57.825 45.2534 58.725C45.2534 59.925 45.2534 61.125 45.2534 62.225C45.2534 64.125 46.8534 65.725 48.8534 65.725C50.8534 65.725 52.4534 64.225 52.4534 62.225C52.4534 61.525 52.4534 60.825 52.4534 60.225V59.225V58.325C52.6534 57.525 52.6534 56.625 52.5534 55.825Z" fill="white"/>
<path d="M59.1534 62.725C58.7534 62.025 58.3534 61.225 57.9534 60.525C57.8534 60.325 57.8534 60.225 57.9534 60.025C58.5534 58.925 59.1534 57.825 59.7534 56.725L59.9534 56.325C60.1534 56.025 60.1534 55.725 60.0534 55.425C59.9534 55.225 59.8534 55.125 59.6534 55.025C59.1534 54.825 58.7534 55.025 58.4534 55.525C58.0534 56.325 57.6534 57.125 57.1534 57.825L56.8534 58.425C56.8534 58.425 56.8534 58.425 56.8534 58.525L56.5534 58.025C56.0534 57.225 55.6534 56.325 55.2534 55.525C55.1534 55.225 54.8534 55.025 54.5534 54.925C54.3534 54.825 54.2534 54.925 54.0534 55.025C53.9534 55.025 53.7534 55.225 53.6534 55.325C53.5534 55.625 53.5534 56.025 53.6534 56.225C54.3534 57.625 54.9534 58.825 55.5534 59.825C55.7534 60.125 55.7534 60.325 55.5534 60.625C54.8534 61.825 54.2534 63.025 53.6534 64.225C53.5534 64.525 53.5534 64.925 53.6534 65.225C53.7534 65.525 54.2534 65.625 54.5534 65.525C54.8534 65.425 55.1534 65.025 55.1534 64.925C55.5534 64.125 56.0534 63.325 56.4534 62.425L56.7534 61.925L57.1534 62.625C57.5534 63.425 57.9534 64.225 58.4534 64.925C58.6534 65.225 58.8534 65.425 59.0534 65.525C59.1534 65.525 59.1534 65.525 59.2534 65.525C59.3534 65.525 59.5534 65.525 59.6534 65.425C60.3534 65.025 59.9534 64.325 59.8534 64.125C59.7534 63.725 59.4534 63.225 59.1534 62.725Z" fill="white"/>
<path d="M67.8534 52.625C67.7534 52.425 67.5534 52.325 67.3534 52.225C67.0534 52.125 66.7534 52.325 66.5534 52.525C66.3534 52.625 66.3534 52.825 66.3534 52.925V53.025C64.6534 57.625 62.9534 62.225 61.2534 66.825V66.925C61.1534 67.025 61.1534 67.225 61.1534 67.425C61.2534 67.725 61.4534 68.125 61.6534 68.225C61.7534 68.225 61.7534 68.225 61.8534 68.225C62.0534 68.225 62.2534 68.125 62.4534 67.925L62.5534 67.825C62.6534 67.725 62.7534 67.625 62.7534 67.425V67.325L67.9534 53.325C67.9534 53.225 68.0534 53.125 68.0534 53.025L68.1534 52.625L68.0534 52.525C67.8534 52.725 67.8534 52.625 67.8534 52.625Z" fill="white"/>
<path d="M56.9535 76.725C55.9535 76.725 55.0535 77.525 55.0535 78.625C55.0535 79.625 55.8535 80.525 56.9535 80.525C57.9535 80.525 58.8535 79.625 58.8535 78.625C58.8535 77.525 58.0535 76.725 56.9535 76.725ZM56.9535 79.325C56.5535 79.325 56.1535 79.025 56.2535 78.525C56.2535 78.125 56.5535 77.825 57.0535 77.825C57.4535 77.825 57.7535 78.125 57.7535 78.525C57.7535 79.025 57.3535 79.325 56.9535 79.325Z" fill="white"/>
<path d="M62.4535 76.725C61.4535 76.725 60.5535 77.525 60.5535 78.625C60.5535 79.625 61.3535 80.525 62.4535 80.525C63.4535 80.525 64.3535 79.625 64.3535 78.625C64.3535 77.525 63.5535 76.725 62.4535 76.725ZM62.4535 79.325C62.0535 79.325 61.7535 78.925 61.7535 78.525C61.7535 78.125 62.0535 77.825 62.5535 77.825C62.9535 77.825 63.2535 78.125 63.2535 78.525C63.2535 79.025 62.8535 79.325 62.4535 79.325Z" fill="white"/>
<path d="M119.253 38.125L70.4534 2.625C65.6534 -0.875 59.2534 -0.875 54.4534 2.625L5.65342 38.125C0.853422 41.625 -1.14658 47.725 0.653422 53.325L19.2534 110.725C21.0534 116.325 26.2534 120.125 32.2534 120.125H92.5534C98.4534 120.125 103.653 116.325 105.553 110.725L124.153 53.325C126.053 47.725 124.053 41.525 119.253 38.125ZM121.353 52.425L102.753 109.825C101.353 114.225 97.2534 117.125 92.6534 117.125H32.3534C27.7534 117.125 23.6534 114.125 22.2534 109.825L3.55342 52.425C2.15342 48.025 3.75342 43.225 7.45342 40.525L56.2534 5.025C58.1534 3.625 60.3534 3.025 62.5534 3.025C64.7534 3.025 66.9534 3.725 68.8534 5.025L117.653 40.425C121.253 43.225 122.853 48.025 121.353 52.425Z" fill="white"/>
</g>
<defs>
<clipPath id="clip0_70_370">
<rect width="124.9" height="120.1" fill="white"/>
</clipPath>
</defs>
</svg>
