<svg width="125" height="121" viewBox="0 0 125 121" fill="none" xmlns="http://www.w3.org/2000/svg">
<g clip-path="url(#clip0_70_355)">
<path d="M76.7 38.6C77.1 38.6 77.6 38.6 78 38.6C78.1 38.6 78.1 38.7 78.2 38.7C80.5 39.2 82 41.2 81.7 43.5C81.6 44.1 81.4 44.7 81.2 45.3C81.6 45.3 82.1 45.3 82.5 45.4C84.5 45.8 85.7 47.5 85.7 49.7C85.7 58.2 85.7 66.7 85.7 75.2C85.7 75.6 85.7 76 85.6 76.4C85.1 78.4 83.5 79.6 81.4 79.6C76.4 79.6 71.4 79.6 66.4 79.6C66.2 79.6 66 79.6 65.8 79.6C66.2 81.2 66.6 82.8 67 84.4C67 84.5 67.3 84.6 67.4 84.6C68.2 84.6 69 84.6 69.8 84.6C71.3 84.7 72.4 85.7 72.7 87.1C72.8 87.5 72.8 87.8 72.8 88.2C73.8 88.2 74.8 88.2 75.8 88.2C76.3 88.2 76.7 88.4 76.9 88.9C77.1 89.4 76.9 89.9 76.2 90.2C67 90.2 57.9 90.2 48.7 90.2C48 90 47.8 89.7 48 89.1C48.1 88.6 48.5 88.4 49.2 88.4C49.6 88.4 49.9 88.4 50.3 88.4C50.9 88.4 51.5 88.4 52.1 88.4C52.1 88.2 52.1 88.1 52.1 88C52.1 85.9 53.4 84.7 55.5 84.7C56.1 84.7 56.7 84.7 57.3 84.7C57.7 84.7 57.8 84.6 57.9 84.2C58.2 82.9 58.5 81.5 58.8 80.2C58.8 80 58.9 79.9 58.9 79.6C58.6 79.6 58.4 79.6 58.2 79.6C53.2 79.6 48.3 79.6 43.3 79.6C40.7 79.6 39 77.9 39 75.3C39 66.8 39 58.2 39 49.7C39 49.2 39.1 48.6 39.2 48.2C39.8 46.4 41.3 45.4 43.3 45.4C52.2 45.4 61.1 45.4 69.9 45.4C70.3 45.4 70.5 45.3 70.7 45C71.6 43.6 72.6 42.2 73.5 40.8C74.2 39.7 75.2 39 76.4 38.8C76.6 38.7 76.6 38.7 76.7 38.6ZM83.8 68.8C83.8 68.6 83.8 68.4 83.8 68.2C83.8 62.1 83.8 56 83.8 49.9C83.8 49.7 83.8 49.5 83.8 49.3C83.7 48.2 82.9 47.5 81.8 47.5C81.2 47.5 80.6 47.5 80 47.5C79.6 47.5 79.4 47.6 79.2 47.9C76.5 51.3 73.7 54.6 70.9 58C70.5 58.5 70.1 59 70.5 59.7C70.6 59.9 70.6 60.2 70.6 60.5C70.8 63.2 68.9 65.4 66.3 65.7C65.4 65.8 64.5 65.7 63.6 65.7C62.3 65.7 61 65.9 60 66.9C59.4 67.4 58.6 67.2 58.4 66.4C57.9 64.5 57.6 62.7 57.8 60.7C58.1 57.2 60.6 54.8 64.2 54.6C64.5 54.6 64.7 54.5 64.9 54.2C66.3 52.1 67.6 50.1 69 48C69.1 47.9 69.2 47.8 69.3 47.5C69 47.5 68.9 47.5 68.7 47.5C60.3 47.5 52 47.5 43.6 47.5C42 47.5 41.2 48.3 41.2 49.9C41.2 56.1 41.2 62.2 41.2 68.4C41.2 68.6 41.2 68.8 41.2 69C42.1 69 43 69 43.9 69C44.6 69 45 69.4 45 70C45 70.6 44.6 71 43.8 71C43 71 42.3 71 41.5 71C41.1 71 41 71.1 41 71.5C41 72.8 41 74.2 41 75.5C41 77 41.8 77.8 43.3 77.8C56 77.8 68.7 77.8 81.4 77.8C82.9 77.8 83.7 77 83.7 75.5C83.7 74.2 83.7 72.8 83.7 71.5C83.7 71.3 83.7 71.2 83.7 71C83.4 71 83.2 71 83 71C72.8 71 62.6 71 52.5 71C52.3 71 52.1 71 51.8 71C51.3 70.9 50.9 70.5 50.9 70C50.9 69.5 51.2 69.1 51.7 69C51.9 68.9 52.2 68.9 52.5 68.9C62.7 68.9 72.9 68.9 83.1 68.9C83.3 68.8 83.5 68.8 83.8 68.8ZM72.4 52.9C72.6 52.7 72.8 52.5 72.9 52.3C74.9 49.8 77 47.3 79 44.8C79.6 44.1 79.8 43.3 79.6 42.4C79.3 41.4 78.6 40.9 77.6 40.7C76.6 40.6 75.8 41 75.2 41.8C73.3 44.7 71.4 47.5 69.4 50.4C69.4 50.5 69.3 50.5 69.3 50.6C70.4 51.4 71.4 52.1 72.4 52.9ZM59.9 64.3C61.3 63.6 62.8 63.5 64.3 63.6C64.8 63.6 65.2 63.7 65.7 63.6C67.1 63.5 68.2 62.8 68.4 61.5C68.5 60.9 68.4 60.2 68.3 59.6C68.3 59.4 68.1 59.1 67.9 59C66.9 58.2 65.9 57.5 64.8 56.7C64.7 56.6 64.5 56.5 64.4 56.5C62.4 56.3 60.4 57.6 59.9 59.5C59.5 61.1 59.6 62.6 59.9 64.3ZM70.7 88.4C70.8 87.1 70.5 86.7 69.2 86.7C64.6 86.7 60 86.7 55.5 86.7C54.4 86.7 54 87.2 54.2 88.4C59.7 88.4 65.2 88.4 70.7 88.4ZM65 84.7C64.6 83 64.2 81.4 63.8 79.7C62.9 79.7 61.9 79.7 61 79.7C60.6 81.4 60.2 83 59.8 84.7C61.6 84.7 63.3 84.7 65 84.7ZM68.3 52.3C67.6 53.3 67 54.2 66.4 55.2C67.3 55.8 68.1 56.5 69 57.1C69.7 56.2 70.5 55.3 71.2 54.4C70.2 53.7 69.3 53 68.3 52.3Z" fill="white"/>
<path d="M48 70.8C47.4 70.8 47 70.4 47 69.8C47 69.3 47.4 68.8 48 68.8C48.6 68.8 49 69.3 49 69.8C49 70.4 48.5 70.8 48 70.8Z" fill="white"/>
<path d="M119.2 38.1L70.4 2.60001C65.6 -0.899994 59.2 -0.899994 54.4 2.60001L5.59996 38.1C0.799955 41.6 -1.20004 47.7 0.599955 53.3L19.2 110.7C21 116.3 26.2 120.1 32.2 120.1H92.5C98.4 120.1 103.6 116.3 105.5 110.7L124.1 53.3C126 47.7 124 41.5 119.2 38.1ZM121.3 52.4L102.7 109.8C101.3 114.2 97.2 117.1 92.6 117.1H32.3C27.7 117.1 23.6 114.1 22.2 109.8L3.49996 52.4C2.09996 48 3.69996 43.2 7.39996 40.5L56.2 5.00001C58.1 3.60001 60.3 3.00001 62.5 3.00001C64.7 3.00001 66.9 3.70001 68.8 5.00001L117.6 40.4C121.2 43.2 122.8 48 121.3 52.4Z" fill="white"/>
</g>
<defs>
<clipPath id="clip0_70_355">
<rect width="124.9" height="120.1" fill="white"/>
</clipPath>
</defs>
</svg>
